<svg xmlns="http://www.w3.org/2000/svg" viewBox="0 0 64 64" role="img" aria-label="Amazon Clone">
  <rect width="64" height="64" rx="14" fill="#ffffff"/>
  <ellipse cx="25" cy="55" rx="16" ry="3.5" fill="#d7e2ef"/>
  <path d="M14 20c0-1.7 1.3-3 3-3h8.2c1.4 0 2.6 1 2.9 2.3l1.2 5.7h17c1.9 0 3.3 1.8 2.8 3.6l-2.6 8.9c-.4 1.3-1.6 2.3-2.9 2.3H25.3l1.3 5.8a3 3 0 0 0 2.9 2.4h12.2a3 3 0 0 1 0 6H29.5c-4.3 0-8-3-8.9-7.2l-4-18.8H14z" fill="#134b95"/>
  <circle cx="26" cy="51" r="3.7" fill="#134b95"/>
  <circle cx="40" cy="51" r="3.7" fill="#134b95"/>
  <rect x="25" y="13" width="18" height="15" rx="2.4" fill="#ff9900"/>
  <path d="M30 13.4a4 4 0 0 1 8 0v2.1h-2.8v-1.9a1.2 1.2 0 0 0-2.4 0v1.9H30z" fill="#ff9900"/>
  <path d="M30 19.5c3 2.2 7.4 2.3 10.6.1" fill="none" stroke="#ffffff" stroke-width="2.4" stroke-linecap="round"/>
  <path d="M17 39.5c10.7 7.1 24.8 7.4 36 .8" fill="none" stroke="#ff9900" stroke-width="3.4" stroke-linecap="round"/>
  <path d="M48.8 35.5l5.4.8-2.8 4.7" fill="none" stroke="#ff9900" stroke-width="3.2" stroke-linecap="round" stroke-linejoin="round"/>
</svg>
